<svg xmlns="http://www.w3.org/2000/svg" viewBox="0 0 48.555 70.832">
  <path d="M3 0v.031h-.094l-.03.031h-.032l-.032.032h-.03v.03L2.75.126l-.03.03c-.088.088-.125.211-.125.406v24.625c0 .192.037.323.125.407.083.082.216.125.406.125h6.438c2.504 0 4.046-.55 4.968-1.75 1.368-1.637 1.407-4.297 1.407-8.344v-5.531c0-4.053-.04-6.678-1.407-8.313C13.61.58 12.067 0 9.563 0H3.03zm3.688 3h2.25c1.005 0 1.598.163 2.062.719.718.86.781 2.599.781 6.094v6.093c0 3.492-.063 5.234-.781 6.094-.464.556-1.057.719-2.063.719h-2.25zM45.82.55V.515l-.001-.018-.002-.032-.002-.016-.001-.017-.002-.015-.002-.013-.004-.015-.002-.014L45.8.36l-.004-.014-.005-.012-.004-.013-.01-.025-.01-.022-.006-.012-.006-.01-.006-.01-.018-.03-.007-.01-.03-.036-.016-.017c-.083-.083-.2-.142-.395-.142h-3.009c-.195 0-.312.06-.395.142-.087.087-.146.205-.146.4v18.189c0 1.9-.143 3.027-.758 3.706-.42.459-1.015.684-1.845.684-.747 0-1.318-.21-1.753-.69-.585-.643-.767-1.733-.767-3.7V.549c0-.194-.053-.312-.14-.4-.085-.082-.2-.14-.397-.14H33.06a.528.528 0 00-.395.14c-.087.088-.14.206-.14.4v18.195c0 2.65.355 4.31 1.41 5.468 1.093 1.202 2.744 1.842 5.25 1.842 2.538 0 4.164-.68 5.17-1.847 1.177-1.367 1.47-3.002 1.47-5.463zM26.37 25.18l-.001.019v.016l-.001.018-.002.032-.001.015-.002.016-.002.015-.002.014-.002.015-.004.014-.004.014-.004.014-.004.012-.01.025-.005.011-.005.013-.005.011-.006.011-.005.01-.006.012-.006.01-.007.01-.006.009-.008.01-.006.009-.007.009-.016.017-.017.016c-.082.083-.2.142-.395.142h-3.296a.519.519 0 01-.39-.142c-.089-.084-.146-.205-.146-.396V3.252h-3.868c-.195 0-.312-.057-.4-.146-.088-.083-.142-.2-.142-.395V.542c0-.195.054-.312.142-.4a.544.544 0 01.4-.141h12.114a.54.54 0 01.397.141c.082.088.14.205.14.4v2.169c0 .195-.058.312-.14.395-.09.089-.205.146-.397.146h-3.87zm22.18 13.41l-10.332 5.425c-13.384-5.205-14.511-5.205-27.89 0L-.004 38.59l10.332-5.425c13.379 5.205 14.507 5.205 27.89 0zm0 13.41l-10.332 5.425c-13.384-5.205-14.511-5.205-27.89 0L-.004 52l10.332-5.424c13.379 5.205 14.507 5.205 27.89 0zm0 13.4l-10.332 5.425c-13.384-5.205-14.511-5.205-27.89 0L-.004 65.4l10.332-5.42c13.379 5.205 14.507 5.205 27.89 0z"/>
</svg>
